<?xml version="1.0" encoding="UTF-8" standalone="no"?>
<!-- Created with Inkscape (http://www.inkscape.org/) -->

<svg
   xmlns:osb="http://www.openswatchbook.org/uri/2009/osb"
   xmlns:dc="http://purl.org/dc/elements/1.1/"
   xmlns:cc="http://creativecommons.org/ns#"
   xmlns:rdf="http://www.w3.org/1999/02/22-rdf-syntax-ns#"
   xmlns:svg="http://www.w3.org/2000/svg"
   xmlns="http://www.w3.org/2000/svg"
   xmlns:xlink="http://www.w3.org/1999/xlink"
   xmlns:sodipodi="http://sodipodi.sourceforge.net/DTD/sodipodi-0.dtd"
   xmlns:inkscape="http://www.inkscape.org/namespaces/inkscape"
   width="152.05638mm"
   height="51.443249mm"
   viewBox="0 0 152.05638 51.443249"
   version="1.1"
   id="svg8"
   inkscape:version="0.92.4 (unknown)"
   sodipodi:docname="logo1-white.svg">
  <defs
     id="defs2">
    <linearGradient
       id="linearGradient6345"
       osb:paint="solid">
      <stop
         style="stop-color:#ff0000;stop-opacity:1;"
         offset="0"
         id="stop6343" />
    </linearGradient>
    <inkscape:path-effect
       vertical="false"
       scale_y_rel="false"
       prop_scale="1"
       bendpath="m 22.401389,29.928233 1.050065,-5.600347"
       is_visible="true"
       id="path-effect6111"
       effect="bend_path" />
    <inkscape:path-effect
       effect="skeletal"
       id="path-effect6109"
       is_visible="true"
       pattern="M 0,5 C 0,2.24 2.24,0 5,0 7.76,0 10,2.24 10,5 10,7.76 7.76,10 5,10 2.24,10 0,7.76 0,5 Z"
       copytype="single_stretched"
       prop_scale="0.26458333"
       scale_y_rel="false"
       spacing="0"
       normal_offset="0"
       tang_offset="0"
       prop_units="false"
       vertical_pattern="false"
       fuse_tolerance="0" />
    <inkscape:path-effect
       effect="bend_path"
       id="path-effect6105"
       is_visible="true"
       bendpath="m 84.666667,113.11458 3.96875,-21.166662"
       prop_scale="1"
       scale_y_rel="false"
       vertical="false" />
    <inkscape:path-effect
       fuse_tolerance="0"
       vertical_pattern="false"
       prop_units="false"
       tang_offset="0"
       normal_offset="0"
       spacing="0"
       scale_y_rel="false"
       prop_scale="0.26458333"
       copytype="single_stretched"
       pattern="M 0,5 C 0,2.24 2.24,0 5,0 7.76,0 10,2.24 10,5 10,7.76 7.76,10 5,10 2.24,10 0,7.76 0,5 Z"
       is_visible="true"
       id="path-effect6103"
       effect="skeletal" />
    <inkscape:path-effect
       effect="skeletal"
       id="path-effect6085"
       is_visible="true"
       pattern="M 0,5 C 0,2.24 2.24,0 5,0 7.76,0 10,2.24 10,5 10,7.76 7.76,10 5,10 2.24,10 0,7.76 0,5 Z"
       copytype="single_stretched"
       prop_scale="0.26458333"
       scale_y_rel="false"
       spacing="0"
       normal_offset="0"
       tang_offset="0"
       prop_units="false"
       vertical_pattern="false"
       fuse_tolerance="0" />
    <inkscape:path-effect
       effect="skeletal"
       id="path-effect6055"
       is_visible="true"
       pattern="M 0,5 C 0,2.24 2.24,0 5,0 7.76,0 10,2.24 10,5 10,7.76 7.76,10 5,10 2.24,10 0,7.76 0,5 Z"
       copytype="single_stretched"
       prop_scale="0.26458333"
       scale_y_rel="false"
       spacing="0"
       normal_offset="0"
       tang_offset="0"
       prop_units="false"
       vertical_pattern="false"
       fuse_tolerance="0" />
    <linearGradient
       id="linearGradient5986"
       osb:paint="solid">
      <stop
         style="stop-color:#ff0000;stop-opacity:1;"
         offset="0"
         id="stop5984" />
    </linearGradient>
    <linearGradient
       inkscape:collect="always"
       xlink:href="#linearGradient5986"
       id="linearGradient5988"
       x1="277.92578"
       y1="335.33008"
       x2="304.60547"
       y2="335.33008"
       gradientUnits="userSpaceOnUse" />
    <inkscape:path-effect
       effect="skeletal"
       id="path-effect6055-3"
       is_visible="true"
       pattern="M 0,5 C 0,2.24 2.24,0 5,0 7.76,0 10,2.24 10,5 10,7.76 7.76,10 5,10 2.24,10 0,7.76 0,5 Z"
       copytype="single_stretched"
       prop_scale="0.26458333"
       scale_y_rel="false"
       spacing="0"
       normal_offset="0"
       tang_offset="0"
       prop_units="false"
       vertical_pattern="false"
       fuse_tolerance="0" />
    <inkscape:path-effect
       effect="skeletal"
       id="path-effect6055-7"
       is_visible="true"
       pattern="M 0,5 C 0,2.24 2.24,0 5,0 7.76,0 10,2.24 10,5 10,7.76 7.76,10 5,10 2.24,10 0,7.76 0,5 Z"
       copytype="single_stretched"
       prop_scale="0.26458333"
       scale_y_rel="false"
       spacing="0"
       normal_offset="0"
       tang_offset="0"
       prop_units="false"
       vertical_pattern="false"
       fuse_tolerance="0" />
    <inkscape:path-effect
       effect="skeletal"
       id="path-effect6055-6"
       is_visible="true"
       pattern="M 0,5 C 0,2.24 2.24,0 5,0 7.76,0 10,2.24 10,5 10,7.76 7.76,10 5,10 2.24,10 0,7.76 0,5 Z"
       copytype="single_stretched"
       prop_scale="0.26458333"
       scale_y_rel="false"
       spacing="0"
       normal_offset="0"
       tang_offset="0"
       prop_units="false"
       vertical_pattern="false"
       fuse_tolerance="0" />
  </defs>
  <sodipodi:namedview
     id="base"
     pagecolor="#ffffff"
     bordercolor="#666666"
     borderopacity="1.0"
     inkscape:pageopacity="0.0"
     inkscape:pageshadow="2"
     inkscape:zoom="1.4142136"
     inkscape:cx="178.70054"
     inkscape:cy="112.7491"
     inkscape:document-units="mm"
     inkscape:current-layer="layer1"
     showgrid="true"
     inkscape:snap-global="true"
     inkscape:snap-intersection-paths="true"
     inkscape:snap-smooth-nodes="true"
     inkscape:snap-object-midpoints="true"
     inkscape:snap-center="true"
     inkscape:snap-midpoints="true"
     inkscape:snap-grids="true"
     showguides="true"
     inkscape:window-width="1853"
     inkscape:window-height="1025"
     inkscape:window-x="67"
     inkscape:window-y="27"
     inkscape:window-maximized="1">
    <inkscape:grid
       type="xygrid"
       id="grid6031"
       originx="-60.68479"
       originy="-388.03799" />
  </sodipodi:namedview>
  <metadata
     id="metadata5">
    <rdf:RDF>
      <cc:Work
         rdf:about="">
        <dc:format>image/svg+xml</dc:format>
        <dc:type
           rdf:resource="http://purl.org/dc/dcmitype/StillImage" />
        <dc:title></dc:title>
      </cc:Work>
    </rdf:RDF>
  </metadata>
  <g
     inkscape:label="Layer 1"
     inkscape:groupmode="layer"
     id="layer1"
     transform="translate(-29.63802,-52.063082)">
    <flowRoot
       xml:space="preserve"
       id="flowRoot5990"
       style="font-style:normal;font-weight:normal;font-size:40px;line-height:1.25;font-family:sans-serif;letter-spacing:0px;word-spacing:0px;fill:#000000;fill-opacity:1;stroke:none"><flowRegion
         id="flowRegion5992"><rect
           id="rect5994"
           width="57"
           height="56"
           x="306"
           y="350.51968" /></flowRegion><flowPara
         id="flowPara5996" /></flowRoot>    <path
       style="color:#000000;font-style:normal;font-variant:normal;font-weight:normal;font-stretch:normal;font-size:medium;line-height:normal;font-family:sans-serif;font-variant-ligatures:normal;font-variant-position:normal;font-variant-caps:normal;font-variant-numeric:normal;font-variant-alternates:normal;font-feature-settings:normal;text-indent:0;text-align:start;text-decoration:none;text-decoration-line:none;text-decoration-style:solid;text-decoration-color:#000000;letter-spacing:normal;word-spacing:normal;text-transform:none;writing-mode:lr-tb;direction:ltr;text-orientation:mixed;dominant-baseline:auto;baseline-shift:baseline;text-anchor:start;white-space:normal;shape-padding:0;clip-rule:nonzero;display:inline;overflow:visible;visibility:visible;opacity:1;isolation:auto;mix-blend-mode:normal;color-interpolation:sRGB;color-interpolation-filters:linearRGB;solid-color:#000000;solid-opacity:1;vector-effect:none;fill:#ffffff;fill-opacity:1;fill-rule:nonzero;stroke:#ffffff;stroke-width:3.5;stroke-linecap:square;stroke-linejoin:miter;stroke-miterlimit:4;stroke-dasharray:none;stroke-dashoffset:0;stroke-opacity:1;color-rendering:auto;image-rendering:auto;shape-rendering:auto;text-rendering:auto;enable-background:accumulate"
       d="m 64.15345,53.813082 c -1.06126,0 -1.9487,0.925891 -2.87166,2.259345 -0.92308,1.333412 -1.88602,3.17311 -2.88981,5.376651 -2.00768,4.406993 -4.17867,10.241028 -6.34941,16.064893 -2.17077,5.823818 -4.33445,11.64004 -6.30644,15.968745 -0.98601,2.164359 -1.92925,3.954186 -2.76998,5.168652 -0.84069,1.214493 -1.57906,1.760182 -1.96495,1.760182 -0.38571,0 -1.00611,-0.507159 -1.70044,-1.710727 -0.694264,-1.203647 -1.433714,-2.99398 -2.195592,-5.158333 -1.207776,-3.430854 -2.512417,-7.866878 -3.891472,-12.43803 h -1.218782 c 1.426295,4.720532 2.771395,9.331491 4.040711,12.937216 0.77574,2.203601 1.524179,4.050504 2.299644,5.394835 0.775471,1.344369 1.604671,2.300989 2.665931,2.300989 1.06121,0 1.94864,-0.91815 2.87172,-2.251549 0.92301,-1.333471 1.88363,-3.180954 2.88752,-5.384448 2.00768,-4.407047 4.1809,-10.241129 6.35168,-16.064952 2.17067,-5.823811 4.33442,-11.639986 6.30639,-15.968692 0.98603,-2.164352 1.92703,-3.954185 2.76772,-5.168662 0.84063,-1.214466 1.58133,-1.749734 1.96722,-1.749734 0.38626,0 1.1243,0.535268 1.96501,1.749734 0.84066,1.214477 1.78388,3.00431 2.76986,5.168662 1.97204,4.328706 4.14476,10.144881 6.31555,15.968692 2.17073,5.823823 4.34171,11.657905 6.34941,16.064952 1.00385,2.203494 1.96452,4.050977 2.8875,5.384448 0.92307,1.333399 1.81053,2.251549 2.87172,2.251549 1.0613,0 1.94871,-0.91815 2.87174,-2.251549 0.92302,-1.333471 1.87683,-3.180954 2.88073,-5.384448 1.64814,-3.617758 3.41854,-8.251051 5.19849,-12.997043 H 96.9972 c -1.70843,4.54645 -3.40099,8.958785 -4.95881,12.378256 -0.98604,2.164359 -1.91797,3.954186 -2.75868,5.168652 -0.8406,1.214493 -1.58129,1.760182 -1.96721,1.760182 -0.38546,0 -1.12431,-0.545689 -1.96496,-1.760182 -0.84072,-1.214466 -1.78393,-3.004293 -2.76997,-5.168652 -1.97193,-4.328705 -4.1447,-10.144927 -6.31544,-15.968745 -2.17074,-5.823865 -4.34177,-11.6579 -6.34947,-16.064893 -1.00384,-2.203541 -1.96451,-4.043239 -2.88749,-5.376651 -0.92303,-1.333454 -1.81049,-2.259345 -2.87172,-2.259345 z"
       id="path6826"
       inkscape:connector-curvature="0" />
    <path
       style="color:#000000;font-style:normal;font-variant:normal;font-weight:normal;font-stretch:normal;font-size:medium;line-height:normal;font-family:sans-serif;font-variant-ligatures:normal;font-variant-position:normal;font-variant-caps:normal;font-variant-numeric:normal;font-variant-alternates:normal;font-feature-settings:normal;text-indent:0;text-align:start;text-decoration:none;text-decoration-line:none;text-decoration-style:solid;text-decoration-color:#000000;letter-spacing:normal;word-spacing:normal;text-transform:none;writing-mode:lr-tb;direction:ltr;text-orientation:mixed;dominant-baseline:auto;baseline-shift:baseline;text-anchor:start;white-space:normal;shape-padding:0;clip-rule:nonzero;display:inline;overflow:visible;visibility:visible;opacity:1;isolation:auto;mix-blend-mode:normal;color-interpolation:sRGB;color-interpolation-filters:linearRGB;solid-color:#000000;solid-opacity:1;vector-effect:none;fill:#ffffff;fill-opacity:1;fill-rule:nonzero;stroke:#ffffff;stroke-width:3.5;stroke-linecap:square;stroke-linejoin:miter;stroke-miterlimit:4;stroke-dasharray:none;stroke-dashoffset:0;stroke-opacity:1;color-rendering:auto;image-rendering:auto;shape-rendering:auto;text-rendering:auto;enable-background:accumulate"
       d="m 145.06915,53.819002 c -1.06119,0 -1.9486,0.925886 -2.87173,2.25934 -0.92302,1.333407 -1.88365,3.173108 -2.88755,5.376651 -2.00764,4.406993 -4.18086,10.24107 -6.35164,16.064945 -1.79353,4.812045 -3.57517,9.568355 -5.255,13.535174 v 2.995103 c 2.00094,-4.400666 4.16262,-10.207369 6.32455,-16.007696 2.17078,-5.823817 4.33445,-11.640039 6.30648,-15.968746 0.98594,-2.164352 1.92917,-3.954185 2.76992,-5.168662 0.84071,-1.214471 1.57906,-1.749733 1.96497,-1.749733 0.38596,0 1.12432,0.535262 1.96497,1.749733 0.84071,1.214477 1.78398,3.00431 2.76997,5.168662 1.97198,4.328707 4.13565,10.144929 6.30644,15.968746 2.17073,5.823822 4.35077,11.6579 6.35846,16.064893 1.0038,2.203494 1.95765,4.051041 2.88073,5.384468 0.92303,1.33344 1.81044,2.25149 2.87173,2.25149 1.06119,0 1.9486,-0.91805 2.87163,-2.25149 0.92302,-1.333427 1.88375,-3.180974 2.88765,-5.384468 1.64795,-3.617551 3.41168,-8.251248 5.18939,-12.996989 h -1.25497 c -1.70848,4.5464 -3.40109,8.95878 -4.95886,12.378208 -0.98599,2.164353 -1.92921,3.954185 -2.76992,5.168689 -0.84061,1.214465 -1.57905,1.76015 -1.96492,1.76015 -0.38596,0 -1.12665,-0.545685 -1.96721,-1.76015 -0.8407,-1.214504 -1.77273,-3.004336 -2.75873,-5.168689 -1.97198,-4.328705 -4.1447,-10.144881 -6.31544,-15.968693 -2.17078,-5.823875 -4.344,-11.657952 -6.35164,-16.064945 -1.00385,-2.203543 -1.96458,-4.043244 -2.8876,-5.376651 -0.92307,-1.333454 -1.81044,-2.25934 -2.87168,-2.25934 z"
       id="path6826-5"
       inkscape:connector-curvature="0" />
    <path
       style="color:#000000;font-style:normal;font-variant:normal;font-weight:normal;font-stretch:normal;font-size:medium;line-height:normal;font-family:sans-serif;font-variant-ligatures:normal;font-variant-position:normal;font-variant-caps:normal;font-variant-numeric:normal;font-variant-alternates:normal;font-feature-settings:normal;text-indent:0;text-align:start;text-decoration:none;text-decoration-line:none;text-decoration-style:solid;text-decoration-color:#000000;letter-spacing:normal;word-spacing:normal;text-transform:none;writing-mode:lr-tb;direction:ltr;text-orientation:mixed;dominant-baseline:auto;baseline-shift:baseline;text-anchor:start;white-space:normal;shape-padding:0;clip-rule:nonzero;display:inline;overflow:visible;visibility:visible;opacity:1;isolation:auto;mix-blend-mode:normal;color-interpolation:sRGB;color-interpolation-filters:linearRGB;solid-color:#000000;solid-opacity:1;vector-effect:none;fill:#ffffff;fill-opacity:1;fill-rule:nonzero;stroke:#ffffff;stroke-width:3.5;stroke-linecap:square;stroke-linejoin:miter;stroke-miterlimit:4;stroke-dasharray:none;stroke-dashoffset:0;stroke-opacity:1;color-rendering:auto;image-rendering:auto;shape-rendering:auto;text-rendering:auto;enable-background:accumulate"
       d="m 104.59014,53.831963 c -1.0613,0 -1.94866,0.925886 -2.87179,2.25934 -0.92302,1.333407 -1.883652,3.173108 -2.887492,5.376651 -2.0077,4.406993 -4.17867,10.24107 -6.34941,16.064945 -1.79199,4.807719 -3.5788,9.560005 -5.25947,13.524807 v 2.989915 c 1.99899,-4.398991 4.15814,-10.198205 6.31778,-15.992141 2.17068,-5.823817 4.34345,-11.640039 6.31539,-15.968746 0.986042,-2.164352 1.929312,-3.954185 2.770022,-5.168662 0.84066,-1.214471 1.5791,-1.749733 1.96497,-1.749733 0.38546,0 1.12654,0.535262 1.96725,1.749733 0.84066,1.214477 1.77254,3.00431 2.75858,5.168662 1.97208,4.328707 4.14486,10.144929 6.31554,15.968746 2.17079,5.823822 4.34396,11.6579 6.35165,16.064893 1.00389,2.203494 1.96442,4.051041 2.88749,5.384468 0.92303,1.333439 1.81049,2.251489 2.87169,2.251489 1.06129,0 1.94875,-0.91805 2.87177,-2.251489 0.92303,-1.333427 1.8836,-3.180974 2.88745,-5.384468 1.64815,-3.617652 3.41347,-8.251147 5.19173,-12.996989 h -1.26627 c -1.70593,4.546103 -3.39202,8.958987 -4.9497,12.378208 -0.98604,2.164353 -1.9293,3.954185 -2.76996,5.168689 -0.84071,1.214465 -1.57911,1.760149 -1.96502,1.760149 -0.38547,0 -1.12417,-0.545684 -1.96497,-1.760149 -0.84067,-1.214504 -1.78388,-3.004336 -2.76992,-5.168689 -1.97199,-4.328705 -4.1357,-10.144881 -6.30639,-15.968693 -2.17073,-5.823875 -4.35077,-11.657952 -6.35851,-16.064945 -1.0039,-2.203543 -1.95771,-4.043244 -2.88073,-5.376651 -0.92298,-1.333454 -1.81044,-2.25934 -2.87168,-2.25934 z"
       id="path6826-8"
       inkscape:connector-curvature="0" />
  </g>
</svg>
